<?xml version="1.0" encoding="utf-8"?>
<!-- Generator: Adobe Illustrator 27.5.0, SVG Export Plug-In . SVG Version: 6.00 Build 0)  -->
<svg version="1.1" id="katman_1" xmlns="http://www.w3.org/2000/svg" xmlns:xlink="http://www.w3.org/1999/xlink" x="0px" y="0px"
	 viewBox="0 0 2886.22 1720" style="enable-background:new 0 0 2886.22 1720;" xml:space="preserve">
<style type="text/css">
	.st0{fill:url(#SVGID_1_);}
	.st1{fill:url(#SVGID_00000041271221684996329310000007137906567437785790_);}
	.st2{fill:#5F6368;}
</style>
<radialGradient id="SVGID_1_" cx="1021.3206" cy="1155.5842" r="1" gradientTransform="matrix(99.9999 508.0001 508.0001 -99.9999 -688444 -402455.0312)" gradientUnits="userSpaceOnUse">
	<stop  offset="0" style="stop-color:#1BA1E3"/>
	<stop  offset="0.3002" style="stop-color:#5489D6"/>
	<stop  offset="0.5455" style="stop-color:#9B72CB"/>
	<stop  offset="0.8254" style="stop-color:#D96570"/>
	<stop  offset="1" style="stop-color:#F49C46"/>
</radialGradient>
<path class="st0" d="M604.09,1013.47l-33.5,76.77c-12.88,29.51-53.69,29.51-66.57,0l-33.5-76.77
	c-29.82-68.32-83.48-122.71-150.42-152.43l-92.22-40.95c-29.32-13.02-29.32-55.69,0-68.71l89.33-39.68
	c68.66-30.49,123.29-86.89,152.59-157.54l33.94-81.82c12.59-30.36,54.52-30.36,67.12,0l33.94,81.82
	c29.3,70.65,83.93,127.05,152.59,157.54l89.34,39.68c29.32,13.02,29.32,55.69,0,68.71l-92.22,40.96
	C687.56,890.76,633.9,945.15,604.09,1013.47z"/>
<radialGradient id="SVGID_00000014612338081099294580000004501731827386072736_" cx="1021.3206" cy="1155.5842" r="1" gradientTransform="matrix(99.9999 508.0001 508.0001 -99.9999 -688444 -402455.0312)" gradientUnits="userSpaceOnUse">
	<stop  offset="0" style="stop-color:#1BA1E3"/>
	<stop  offset="0.3002" style="stop-color:#5489D6"/>
	<stop  offset="0.5455" style="stop-color:#9B72CB"/>
	<stop  offset="0.8254" style="stop-color:#D96570"/>
	<stop  offset="1" style="stop-color:#F49C46"/>
</radialGradient>
<path style="fill:url(#SVGID_00000014612338081099294580000004501731827386072736_);" d="M915.43,1255.55l-9.42,21.61
	c-6.9,15.82-28.79,15.82-35.68,0l-9.42-21.61c-16.79-38.52-47.05-69.19-84.79-85.97l-29.03-12.9c-15.7-6.98-15.7-29.81,0-36.78
	l27.41-12.18c38.72-17.21,69.51-49.02,86.02-88.85l9.67-23.35c6.74-16.27,29.23-16.27,35.97,0l9.68,23.35
	c16.51,39.83,47.3,71.64,86.02,88.85l27.41,12.18c15.7,6.98,15.7,29.81,0,36.78l-29.03,12.9
	C962.47,1186.35,932.22,1217.03,915.43,1255.55z"/>
<g>
	<path class="st2" d="M1155.87,1137.34v-550.1h198.99c43.54,0,80.93,14.34,112.17,43.02c31.25,28.17,46.87,63.77,46.87,106.79
		c0,54.29-24.84,92.45-74.53,114.48v3.07c28.17,9.22,50.71,25.35,67.61,48.4c16.9,22.54,25.35,48.4,25.35,77.6
		c0,45.07-16.39,82.46-49.17,112.17c-31.76,29.71-70.94,44.56-117.55,44.56H1155.87z M1226.56,654.85v168.26h128.31
		c25.1,0,46.1-8.45,63-25.35c16.9-17.41,25.35-37.13,25.35-59.16c0-21.51-8.2-40.98-24.59-58.39c-16.39-16.9-36.62-25.35-60.7-25.35
		H1226.56z M1226.56,889.18v180.55h142.14c25.61,0,47.38-8.96,65.31-26.89c17.41-17.93,26.12-39.18,26.12-63.77
		c0-24.07-8.96-45.07-26.89-63c-17.93-17.93-40.46-26.89-67.61-26.89H1226.56z M1651.23,1022.1c0,18.44,7.68,33.81,23.05,46.1
		c15.88,12.29,34.32,18.44,55.32,18.44c29.71,0,56.09-11.01,79.13-33.04c23.56-22.03,35.34-47.89,35.34-77.6
		c-22.03-17.42-52.76-26.12-92.2-26.12c-28.68,0-52.76,6.91-72.22,20.74C1660.71,984.45,1651.23,1001.61,1651.23,1022.1z
		 M1742.66,748.58c52.24,0,93.48,14.09,123.7,42.26c30.22,27.66,45.33,65.82,45.33,114.48v232.03h-67.61v-52.24H1841
		c-29.2,43.02-68.12,64.54-116.78,64.54c-41.49,0-76.32-12.29-104.49-36.88c-27.66-24.59-41.49-55.32-41.49-92.2
		c0-38.93,14.6-69.92,43.79-92.96c29.71-23.05,69.15-34.57,118.32-34.57c42,0,76.58,7.68,103.72,23.05v-16.13
		c0-24.59-9.73-45.33-29.2-62.23c-19.46-17.41-42.26-26.12-68.38-26.12c-39.44,0-70.68,16.65-93.73,49.94l-62.23-39.18
		C1624.86,773.17,1675.56,748.58,1742.66,748.58z M2062.09,1137.34h-70.68V760.87h67.61v61.46h3.07
		c7.17-19.98,21.77-36.88,43.79-50.71c22.54-14.34,44.56-21.51,66.07-21.51c20.49,0,37.91,3.07,52.24,9.22l-21.51,68.38
		c-8.71-3.59-22.54-5.38-41.49-5.38c-26.63,0-49.94,10.76-69.92,32.27c-19.46,21.51-29.2,46.61-29.2,75.29V1137.34z M2416.29,1085.1
		c34.83,0,63.26-12.55,85.28-37.65c23.05-25.1,34.57-57.88,34.57-98.34c0-39.44-11.52-71.97-34.57-97.57
		c-22.54-25.61-50.96-38.42-85.28-38.42c-33.81,0-62.23,12.81-85.28,38.42s-34.57,58.14-34.57,97.57
		c0,39.95,11.52,72.48,34.57,97.57C2354.05,1072.29,2382.48,1085.1,2416.29,1085.1z M2404.76,1149.63
		c-49.17,0-91.43-19.46-126.77-58.39c-34.83-39.44-52.24-86.82-52.24-142.14s17.42-102.7,52.24-142.14
		c35.34-38.93,77.6-58.39,126.77-58.39c27.66,0,52.76,5.89,75.29,17.67c23.05,11.78,40.72,27.4,53.01,46.87h3.07l-3.07-52.24V587.24
		h70.68v550.1h-67.61v-52.24h-3.07c-12.29,19.46-29.96,35.09-53.01,46.87C2457.52,1143.74,2432.42,1149.63,2404.76,1149.63z"/>
</g>
</svg>
